<svg width="283" height="71" viewBox="0 0 283 71" fill="none" xmlns="http://www.w3.org/2000/svg">
<path d="M35.712 52.1236C34.952 52.1265 34.1719 52.1096 33.3717 52.0727C32.5849 52.0491 31.778 52.0056 30.951 51.9421C30.124 51.892 29.2636 51.8154 28.3698 51.7122L28.2213 22.8326C29.0604 22.656 29.9397 22.5059 30.8591 22.3823C31.7917 22.2453 32.7312 22.1416 33.6775 22.0713C34.6238 22.0009 35.5503 21.964 36.457 21.9604C41.4969 21.9408 45.3032 23.1593 47.8759 25.6159C50.4485 28.0592 51.748 31.8542 51.7744 37.0008C51.7924 40.4941 51.2071 43.3564 50.0186 45.5877C48.8299 47.8057 47.0383 49.446 44.6438 50.5087C42.2625 51.5713 39.2853 52.1096 35.712 52.1236ZM36.6538 48.5799C39.0671 48.5704 41.0717 48.176 42.6678 47.3964C44.2637 46.6035 45.4573 45.3588 46.2486 43.6624C47.0399 41.966 47.4285 39.7444 47.4144 36.9978C47.4004 34.2778 46.9957 32.0727 46.2004 30.3825C45.4049 28.6789 44.2119 27.4369 42.6212 26.6564C41.0437 25.8626 39.0684 25.4703 36.695 25.4795C36.0417 25.4821 35.3486 25.5181 34.6156 25.5876C33.8959 25.6438 33.183 25.7332 32.4769 25.856L32.5927 48.3757C33.2463 48.4398 33.8933 48.4906 34.5335 48.5281C35.187 48.5656 35.8938 48.5828 36.6538 48.5799ZM53.7374 51.7932L63.8852 22.1534L69.9651 22.1297L80.4172 51.6892L76.1772 51.7057L66.6151 24.0828L67.1951 24.0805L57.9373 51.7768L53.7374 51.7932ZM59.5907 42.6903L60.5329 39.2266L73.4728 39.1762L74.4505 42.6324L59.5907 42.6903ZM87.6702 51.6609L87.5367 25.6812L77.8568 25.719L77.8382 22.099L101.478 22.0068L101.497 25.6267L91.7967 25.6646L91.9302 51.6442L87.6702 51.6609ZM99.1667 51.616L109.315 21.9762L115.394 21.9525L125.847 51.5119L121.607 51.5285L112.044 23.9056L112.624 23.9033L103.367 51.5996L99.1667 51.616ZM105.02 42.5131L105.962 39.0494L118.902 38.9989L119.88 42.4551L105.02 42.5131ZM133.1 51.4836L132.966 25.504L123.286 25.5417L123.268 21.9218L146.907 21.8296L146.926 25.4495L137.226 25.4874L137.36 51.467L133.1 51.4836ZM160.519 51.7567C157.959 51.7667 155.716 51.2487 153.79 50.2029C151.865 49.1437 150.363 47.4963 149.285 45.2604C148.22 43.0246 147.679 40.1467 147.661 36.6267C147.643 33.1068 148.161 30.2247 149.216 27.9806C150.271 25.7365 151.75 24.084 153.651 23.0233C155.565 21.9491 157.803 21.407 160.362 21.3971C162.936 21.387 165.185 21.9116 167.111 22.9707C169.036 24.0299 170.531 25.6774 171.596 27.9133C172.674 30.1358 173.222 33.007 173.24 36.5269C173.258 40.0469 172.74 42.9289 171.685 45.1731C170.63 47.4039 169.145 49.0563 167.23 50.1305C165.316 51.2046 163.078 51.7467 160.519 51.7567ZM160.5 48.2167C162.22 48.21 163.705 47.8309 164.955 47.0793C166.217 46.3144 167.184 45.0906 167.856 43.408C168.54 41.712 168.875 39.464 168.861 36.664C168.846 33.7707 168.488 31.4721 167.786 29.7682C167.083 28.0509 166.097 26.8147 164.827 26.0597C163.569 25.3046 162.087 24.9304 160.381 24.937C158.674 24.9437 157.189 25.3228 155.926 26.0744C154.677 26.8259 153.71 28.0497 153.025 29.7457C152.341 31.4284 152.005 33.6764 152.02 36.4897C152.035 39.383 152.393 41.6883 153.095 43.4056C153.798 45.1228 154.777 46.359 156.035 47.1141C157.305 47.8558 158.794 48.2234 160.5 48.2167ZM189.75 51.6426C187.123 51.6529 184.961 51.2346 183.263 50.3879C181.565 49.5279 180.305 48.2261 179.483 46.4826C178.674 44.7258 178.262 42.494 178.248 39.7874L178.156 21.7077L182.396 21.6911L182.491 40.2109C182.505 42.9575 183.095 44.9552 184.262 46.204C185.441 47.4527 187.264 48.0723 189.731 48.0627C192.198 48.0531 194.008 47.4193 195.161 46.1615C196.315 44.9036 196.885 42.9014 196.871 40.1548L196.775 21.635L200.935 21.6188L201.028 39.6985C201.042 42.4052 200.654 44.64 199.863 46.4031C199.072 48.1529 197.838 49.4644 196.163 50.3376C194.501 51.1974 192.363 51.6324 189.75 51.6426ZM220.117 51.5242C217.944 51.5326 215.989 51.2669 214.253 50.727C212.53 50.1737 211.053 49.2995 209.82 48.1043C208.6 46.9091 207.666 45.3527 207.016 43.4352C206.366 41.5177 206.034 39.1923 206.02 36.4591C206.002 32.9391 206.554 30.0569 207.675 27.8125C208.797 25.5548 210.422 23.8885 212.55 22.8135C214.691 21.7251 217.268 21.1751 220.281 21.1633C221.415 21.1589 222.508 21.2213 223.562 21.3505C224.616 21.4797 225.651 21.6824 226.666 21.9584L226.684 25.5584C225.669 25.2823 224.655 25.0796 223.641 24.9502C222.64 24.8208 221.607 24.7582 220.54 24.7623C218.327 24.771 216.469 25.1582 214.966 25.9241C213.476 26.6766 212.349 27.901 211.585 29.5973C210.82 31.2936 210.445 33.5484 210.459 36.3617C210.474 39.2684 210.873 41.5668 211.655 43.2571C212.45 44.934 213.583 46.1363 215.053 46.8639C216.537 47.5781 218.332 47.9311 220.439 47.9229C221.506 47.9187 222.545 47.8347 223.558 47.6707C224.583 47.4934 225.662 47.2158 226.793 46.8381L226.812 50.438C225.84 50.7752 224.788 51.0393 223.656 51.2304C222.524 51.4214 221.344 51.5194 220.117 51.5242ZM230.83 51.1024L230.678 21.5028L234.918 21.4862L234.982 34.026L249.562 33.9692L249.498 21.4293L253.758 21.4127L253.91 51.0123L249.65 51.0289L249.582 37.7491L235.002 37.806L235.07 51.0858L230.83 51.1024Z" fill="white"/>
<rect x="1.5" y="1.5" width="279.255" height="67.9044" rx="33.9522" stroke="white" stroke-width="3"/>
</svg>
